<?xml version="1.0" standalone="no"?>
<!DOCTYPE svg PUBLIC "-//W3C//DTD SVG 20010904//EN"
 "http://www.w3.org/TR/2001/REC-SVG-20010904/DTD/svg10.dtd">
<svg version="1.0" xmlns="http://www.w3.org/2000/svg"
 width="500.000000pt" height="500.000000pt" viewBox="0 0 500.000000 500.000000"
 preserveAspectRatio="xMidYMid meet">
<metadata>
Created by potrace 1.14, written by Peter Selinger 2001-2017
</metadata>
<g transform="translate(0.000000,500.000000) scale(0.100000,-0.100000)"
fill="#000000" stroke="none">
<path d="M2340 4990 c-685 -45 -1318 -368 -1762 -900 -630 -755 -751 -1839
-302 -2720 124 -244 254 -420 464 -630 210 -210 386 -340 630 -464 799 -407
1765 -350 2513 148 283 188 548 461 732 752 142 224 265 517 320 761 48 214
59 324 59 563 0 238 -11 349 -59 560 -176 783 -739 1446 -1490 1753 -352 144
-717 203 -1105 177z m451 -1019 c139 -28 267 -74 399 -142 410 -212 696 -598
787 -1064 24 -125 24 -405 0 -530 -63 -321 -196 -575 -417 -796 -171 -171
-361 -290 -584 -364 -180 -60 -248 -70 -476 -70 -178 0 -219 3 -309 23 -299
67 -536 197 -751 412 -216 215 -352 467 -417 770 -26 121 -26 459 0 580 65
303 201 555 417 770 244 244 480 362 870 434 63 12 388 -4 481 -23z"/>
</g>
</svg>
